:SAMPLES-PER-SECOND 30
:FULLY-SPECIFIED
:DEGREES
821
root  3.17639 38.7981 -12.5113 -165.456 -73.3054 159.44
RightUpLeg  -12.4986 -2.12444 -11.83
RightLeg  58.866 2.94562 4.84858
RightFoot  0.629689 -1.08603 10.3626
RightToes  5.82063e-011 0 -3.6325e-017
Spine  6.66457 0.533241 -2.61361
Spine1  5.74369 0.99052 -6.23017
HEad  -9.76904 14.1988 -7.51416
LeftShoulder1  0.233651 2.84492 -29.3415
LeftArm  -0.786368 14.2436 -42.3483
LeftForeArm  25.6043 -14.7913 -6.44053
LeftHand  -0.0163256 1.56138 0.235523
RightShoulder  -0.443938 -4.87297 25.5341
RightArm  18.5582 -5.48609 49.4126
RightForeArm  4.00794 20.0067 4.81202
RightHand  -0.387533 3.1962 -5.48715
LeftUpLeg  -5.41132 3.10745 -10.7199
LeftLeg  17.9675 8.86988 1.96687
LeftFoot  -7.81987 -0.280167 10.6212
LeftToes  2.58842e-009 -1.78069e-010 3.24654e-012
822
root  2.37896 38.9387 -12.8446 -167.894 -75.1989 160.821
RightUpLeg  -13.574 -1.33682 -10.4682
RightLeg  53.7757 1.05982 1.1784
RightFoot  -0.793385 -0.852295 9.15914
RightToes  5.82063e-011 0 -3.6325e-017
Spine  8.72679 0.14433 -2.30454
Spine1  4.96904 0.445248 -5.69894
HEad  -9.21667 13.5435 -7.42228
LeftShoulder1  0.26832 2.74168 -29.0753
LeftArm  1.42249 13.3689 -42.9377
LeftForeArm  22.4512 -16.6559 -5.90884
LeftHand  -0.0261439 1.61137 0.539413
RightShoulder  -0.459222 -4.92167 25.5146
RightArm  18.8298 -5.62085 48.7818
RightForeArm  4.23785 20.9754 4.6929
RightHand  -0.468773 4.6656 -5.72866
LeftUpLeg  -2.06657 4.05585 -9.31359
LeftLeg  16.8978 6.49957 1.14257
LeftFoot  -8.80492 -0.182857 10.6378
LeftToes  2.58842e-009 -1.78069e-010 3.24654e-012
823
root  1.57489 39.045 -13.1865 -170.238 -77.1074 162.601
RightUpLeg  -14.1539 -1.09499 -9.32088
RightLeg  46.076 -0.358681 -0.710357
RightFoot  -1.81955 -0.738904 8.72133
RightToes  5.82063e-011 0 -3.6325e-017
Spine  9.99717 -0.209394 -1.79615
Spine1  4.60557 0.053759 -5.15343
HEad  -8.99478 13.7328 -7.24395
LeftShoulder1  0.296458 2.65951 -28.986
LeftArm  3.13433 12.2938 -43.3015
LeftForeArm  20.0281 -18.569 -5.20251
LeftHand  -0.0147366 0.894419 0.253827
RightShoulder  -0.400579 -4.74919 25.2134
RightArm  18.8369 -5.74124 48.4165
RightForeArm  4.23443 21.0291 4.68953
RightHand  -0.419792 2.87574 -6.11399
LeftUpLeg  0.617208 4.93705 -7.8023
LeftLeg  16.0666 4.02354 0.526141
LeftFoot  -9.82003 -0.0834251 10.6968
LeftToes  2.58842e-009 -1.78069e-010 3.24654e-012
824
root  0.746137 39.0961 -13.5415 -170.622 -78.531 162.793
RightUpLeg  -14.3543 -1.09988 -8.84018
RightLeg  36.4163 -1.23839 -1.2543
RightFoot  -2.43937 -0.739837 9.2668
RightToes  5.82063e-011 0 -3.6325e-017
Spine  10.7457 -0.246577 -1.41303
Spine1  4.31607 0.108374 -4.90919
HEad  -9.14088 13.2414 -6.75873
LeftShoulder1  0.338078 2.53466 -28.7572
LeftArm  4.52765 11.1381 -43.7634
LeftForeArm  18.9054 -20.4105 -4.54392
LeftHand  0.00873374 0.86955 -0.337892
RightShoulder  -0.389852 -4.72273 25.0144
RightArm  18.0876 -5.84955 48.1559
RightForeArm  3.88681 20.0851 4.79324
RightHand  -0.471804 4.09486 -6.03978
LeftUpLeg  2.68733 5.73956 -6.62702
LeftLeg  15.6314 1.96783 -0.146661
LeftFoot  -10.9384 0.0289095 10.4402
LeftToes  2.58842e-009 -1.78069e-010 3.24654e-012
825
root  -0.10838 39.0928 -13.9185 -169.558 -79.6532 161.622
RightUpLeg  -13.9972 -2.17985 -8.67747
RightLeg  25.5373 -1.28147 -0.840333
RightFoot  -1.92626 -0.78096 9.30477
RightToes  5.82063e-011 0 -3.6325e-017
Spine  11.424 -0.198118 -1.3874
Spine1  3.91048 0.206465 -4.5343
HEad  -9.22771 13.1266 -6.29606
LeftShoulder1  0.34361 2.50979 -28.4293
LeftArm  6.86115 10.1942 -44.0317
LeftForeArm  16.7981 -22.0902 -4.22998
LeftHand  -0.0920181 0.666751 2.14474
RightShoulder  -0.392627 -4.72144 25.2774
RightArm  17.8395 -5.4149 47.6155
RightForeArm  3.97727 18.2144 5.12582
RightHand  -0.475819 3.64994 -6.35627
LeftUpLeg  4.65064 6.49791 -5.59731
LeftLeg  15.1666 -0.103922 -0.955474
LeftFoot  -12.1669 0.14747 10.203
LeftToes  2.58842e-009 -1.78069e-010 3.24654e-012
826
root  -0.99853 39.0611 -14.3341 -166.836 -79.8228 159.027
RightUpLeg  -13.5786 -3.65781 -8.45712
RightLeg  14.311 0.0495774 -0.45694
RightFoot  -1.23948 -0.855626 9.55958
RightToes  5.82063e-011 0 -3.6325e-017
Spine  11.6678 0.337451 -1.72178
Spine1  3.68278 0.764336 -4.00176
HEad  -8.80645 11.3239 -6.18
LeftShoulder1  0.309628 2.60928 -28.4727
LeftArm  6.96091 9.39768 -43.9525
LeftForeArm  17.0433 -23.3052 -4.14323
LeftHand  -0.141717 -0.70579 2.77963
RightShoulder  -0.392818 -4.72244 25.2665
RightArm  15.9302 -5.46625 47.5417
RightForeArm  6.33709 16.0026 5.46366
RightHand  -0.420464 3.39639 -5.8058
LeftUpLeg  6.57771 7.0501 -5.02952
LeftLeg  14.2791 -1.11042 -1.61083
LeftFoot  -13.123 0.23616 10.0892
LeftToes  2.58842e-009 -1.78069e-010 3.24654e-012
827
root  -1.91726 38.9961 -14.8056 -163.368 -79.5553 156.091
RightUpLeg  -13.3044 -6.86451 -7.69391
RightLeg  3.506 3.79258 -0.691288
RightFoot  -0.701521 -0.968598 10.3261
RightToes  5.82063e-011 0 -3.6325e-017
Spine  11.7219 1.19087 -2.55631
Spine1  3.04307 1.46964 -2.90238
HEad  -8.41714 10.2976 -6.45543
LeftShoulder1  0.334901 2.54037 -28.6296
LeftArm  5.99059 9.13435 -43.7098
LeftForeArm  18.0836 -24.4557 -4.27379
LeftHand  -0.0572044 -0.156341 1.23958
RightShoulder  -0.393886 -4.72206 25.3663
RightArm  14.4531 -5.69431 46.9824
RightForeArm  7.84319 13.9833 5.80464
RightHand  -0.382166 3.7282 -5.11599
LeftUpLeg  8.1869 7.58126 -4.52468
LeftLeg  13.3095 -1.87814 -2.3554
LeftFoot  -14.1359 0.321012 9.63679
LeftToes  2.58842e-009 -1.78069e-010 3.24654e-012
828
root  -2.90253 38.8237 -15.3145 -160.194 -79.4133 153.268
RightUpLeg  -13.2854 -7.5215 -7.30273
RightLeg  -3.70441 3.10435 -1.28236
RightFoot  -1.29773 -0.981556 10.9481
RightToes  5.82063e-011 0 -3.6325e-017
Spine  11.7597 1.85516 -3.48217
Spine1  2.45153 1.9466 -1.94333
HEad  -8.35773 10.3557 -6.82284
LeftShoulder1  0.300114 2.64418 -28.7812
LeftArm  5.12069 9.19204 -43.5475
LeftForeArm  18.3068 -24.9891 -4.38315
LeftHand  -0.0607475 0.350621 1.38245
RightShoulder  -0.37428 -4.65804 25.4218
RightArm  12.8385 -5.83414 46.6795
RightForeArm  9.74973 12.0378 6.00045
RightHand  -0.354478 3.28823 -4.97902
LeftUpLeg  9.63495 8.2714 -3.83164
LeftLeg  13.4391 -2.92631 -3.08452
LeftFoot  -15.7136 0.450746 9.31603
LeftToes  2.58842e-009 -1.78069e-010 3.24654e-012
829
root  -4.01708 38.6516 -15.7434 -159.403 -79.7726 152.21
RightUpLeg  -13.6814 -7.24954 -7.03164
RightLeg  -3.75072 -0.0122251 -1.15368
RightFoot  -2.09732 -0.700416 9.03085
RightToes  5.82063e-011 0 -3.6325e-017
Spine  11.8568 2.05823 -2.71042
Spine1  2.70001 2.19317 -1.84248
HEad  -8.28654 9.78376 -7.75321
LeftShoulder1  0.287525 2.6881 -29.1209
LeftArm  5.01926 9.01729 -43.3649
LeftForeArm  17.2731 -24.2984 -4.28662
LeftHand  -0.0707109 1.08161 1.76276
RightShoulder  -0.402403 -4.74113 25.5703
RightArm  11.8211 -5.9294 46.2666
RightForeArm  10.1666 10.4031 6.14718
RightHand  -0.396104 3.45588 -5.44654
LeftUpLeg  11.9659 8.60632 -3.07131
LeftLeg  13.4873 -3.97101 -2.96085
LeftFoot  -17.3035 0.560181 8.73248
LeftToes  2.58842e-009 -1.78069e-010 3.24654e-012
830
root  -5.14471 38.6237 -16.0314 -162.825 -81.2149 155.457
RightUpLeg  -13.9805 -7.41433 -6.19319
RightLeg  -0.104482 -3.47369 -0.596182
RightFoot  4.29413 -0.461765 3.42876
RightToes  5.82063e-011 0 -3.6325e-017
Spine  11.9031 1.38401 0.284602
Spine1  3.54172 1.72275 -1.85344
HEad  -8.15199 9.54139 -8.09657
LeftShoulder1  0.270035 2.73727 -29.0998
LeftArm  4.74133 9.52778 -43.5268
LeftForeArm  16.8927 -23.1725 -4.12871
LeftHand  -0.0760499 0.892629 1.8665
RightShoulder  -0.437111 -4.83878 25.8297
RightArm  11.3444 -5.93537 45.722
RightForeArm  10.8075 9.42935 6.15227
RightHand  -0.337582 3.30755 -4.73674
LeftUpLeg  14.604 8.27414 -1.8312
LeftLeg  12.4819 -4.91911 -1.85365
LeftFoot  -18.1839 0.586643 7.96197
LeftToes  2.58842e-009 -1.78069e-010 3.24654e-012
831
root  -6.40294 38.4888 -16.3048 -168.9 -82.7053 161.185
RightUpLeg  -14.5071 -8.36953 -5.72606
RightLeg  5.17458 -3.24768 -0.0522962
RightFoot  8.53482 -0.447621 2.86868
RightToes  5.82063e-011 0 -3.6325e-017
Spine  11.4872 0.292241 3.82746
Spine1  4.54399 1.13618 -2.77075
HEad  -8.02503 9.45952 -8.62412
LeftShoulder1  0.277112 2.7187 -29.1673
LeftArm  3.76847 10.4289 -43.4531
LeftForeArm  17.2167 -21.4913 -4.30315
LeftHand  -0.0669173 0.653867 1.57065
RightShoulder  -0.5052 -5.02896 26.3097
RightArm  10.78 -5.92466 45.0562
RightForeArm  11.2246 9.17575 5.95141
RightHand  -0.286259 2.79572 -4.27535
LeftUpLeg  17.065 6.83756 -0.989377
LeftLeg  12.4824 -4.51559 -0.34966
LeftFoot  -19.5087 0.621899 7.08217
LeftToes  2.58842e-009 -1.78069e-010 3.24654e-012
832
root  -7.67153 38.3742 -16.6528 176.562 -83.7192 175.491
RightUpLeg  -14.9455 -10.036 -4.11244
RightLeg  10.8375 -1.5345 0.495568
RightFoot  8.11689 -0.357049 2.39569
RightToes  5.82063e-011 0 -3.6325e-017
Spine  11.2161 -0.468436 7.40434
Spine1  5.04785 0.695556 -3.0775
HEad  -8.12828 9.3369 -8.82654
LeftShoulder1  0.225443 2.87399 -29.7246
LeftArm  3.23408 10.6819 -43.0681
LeftForeArm  18.1769 -18.7368 -5.18261
LeftHand  -0.0730995 0.735624 1.7476
RightShoulder  -0.53117 -5.10689 26.3417
RightArm  10.0831 -6.1408 44.5533
RightForeArm  9.92442 9.14442 5.7366
RightHand  -0.361204 3.47968 -4.97666
LeftUpLeg  18.3941 4.1802 0.413551
LeftLeg  14.6854 -2.63671 0.516833
LeftFoot  -20.5404 0.524285 4.98866
LeftToes  2.58842e-009 -1.78069e-010 3.24654e-012
833
root  -8.87621 38.3868 -17.0723 164.267 -83.409 -171.697
RightUpLeg  -15.6707 -10.5728 -1.95986
RightLeg  15.0044 -0.318599 0.140763
RightFoot  6.58705 -0.0256711 0.443355
RightToes  5.82063e-011 0 -3.6325e-017
Spine  10.4991 -0.627764 9.60595
Spine1  5.2455 0.569978 -2.39182
HEad  -7.57972 9.28473 -9.00575
LeftShoulder1  0.141437 3.11601 -30.3147
LeftArm  0.607652 11.3281 -42.8224
LeftForeArm  21.6496 -15.6432 -6.31906
LeftHand  -0.0508001 1.17311 1.23761
RightShoulder  -0.529906 -5.09679 26.4693
RightArm  10.0432 -5.76287 44.0123
RightForeArm  8.62437 8.75723 5.78195
RightHand  -0.403278 3.52731 -5.49985
LeftUpLeg  17.9412 1.11732 1.38211
LeftLeg  18.5286 0.00386209 0.493945
LeftFoot  -19.8281 0.231237 1.44219
LeftToes  2.58842e-009 -1.78069e-010 3.24654e-012
